# xmcd
#
# Track frame offsets: 
#        150
#        9872
#        20916
#        33342
#        45151
#        59261
#        71232
#        81435
#        95219
#        107734
#        117612
#        131150
#        141380
#        151713
#        163216
#        172478
#        186653
#        198434
#        210613
#        222978
#        237253
#        248250
#        261209
#        272595
#
# Disc length: 3775 seconds
#
# Revision: 6
# Processed by: cddbd v1.5.2PL0 Copyright (c) Steve Scherf et al.
# Submitted via: ExactAudioCopy v1.1
#
DISCID=6e0ebd18
DTITLE=Various Artist - King New Breed R&B (Kent) - Volume 1
DYEAR=2002
DGENRE=R&B
TTITLE0=Mike Pedicin - Burnt Toast And Black Coffee (mono)
TTITLE1=Little Willie John - I'm Shakin' (mono)
TTITLE2=Bobby King - Thanks Mr. Postman (mono)
TTITLE3=Tiny Topsy - Just A Little Bit (mono)
TTITLE4=Albert King - Had You Told It Like It Was (It Wouldn't Be Like
TTITLE4=It Is) (mono)
TTITLE5=Lee 'Shot' Williams - You're Welcome To The Club (mono)
TTITLE6=Rosemary - Not Much (Do You Baby) (mono)
TTITLE7=Freddie King - Now I've Got A Woman (mono)
TTITLE8=James Duncan - Three Little Pigs (mono)
TTITLE9=William Patton - Don't Be So Mean (mono)
TTITLE10=Johnny Watson - I Say, I Love You (mono)
TTITLE11=Hannibal - My Kinda Girl (mono)
TTITLE12=The King Pins - You're Using Me (mono)
TTITLE13=Bobby Byrd - I Found Out (mono)
TTITLE14=Mary Johnson - Hard Forgetting Memories (mono)
TTITLE15=Lula Reed and Freddie King - It's Easy Child (mono)
TTITLE16=The '5' Royales - Think (mono)
TTITLE17=Joe Tex - Pneumonia (mono)
TTITLE18=Lloyd Nolan - I Don't Know About You (mono)
TTITLE19=Mike Williams - You Don't Want Me Around (mono)
TTITLE20=The Fabulous Denos - Bad Girl (mono)
TTITLE21=The Premieres (King) - I'm Better Off Now (Than I Was Before)
TTITLE21=(mono)
TTITLE22=Freddie King - Some Other Day, Some Other Time (mono)
TTITLE23=Ike Turner - She Made My Blood Run Cold (mono)
EXTD=
EXTT0=
EXTT1=
EXTT2=
EXTT3=
EXTT4=
EXTT5=
EXTT6=
EXTT7=
EXTT8=
EXTT9=
EXTT10=
EXTT11=
EXTT12=
EXTT13=
EXTT14=
EXTT15=
EXTT16=
EXTT17=
EXTT18=
EXTT19=
EXTT20=
EXTT21=
EXTT22=
EXTT23=
PLAYORDER=
